<svg width="100" height="100" viewBox="0 0 100 100" xmlns="http://www.w3.org/2000/svg">
  <!-- Background circle -->
  <circle cx="50" cy="50" r="45" fill="#FF7043" />
  
  <!-- Open book -->
  <path d="M25,65 C25,55 25,35 25,35 C25,35 35,30 50,30 C65,30 75,35 75,35 C75,35 75,55 75,65 L50,60 L25,65 Z" fill="#FFFFFF" stroke="#333333" stroke-width="2" />
  <path d="M50,30 L50,60" stroke="#333333" stroke-width="2" />
  
  <!-- Book pages details -->
  <path d="M30,40 L45,38" stroke="#666666" stroke-width="1" />
  <path d="M30,45 L45,43" stroke="#666666" stroke-width="1" />
  <path d="M30,50 L45,48" stroke="#666666" stroke-width="1" />
  <path d="M55,38 L70,40" stroke="#666666" stroke-width="1" />
  <path d="M55,43 L70,45" stroke="#666666" stroke-width="1" />
  <path d="M55,48 L70,50" stroke="#666666" stroke-width="1" />
  
  <!-- Pencil -->
  <path d="M65,20 L75,30 L60,45 L50,35 L65,20 Z" fill="#FFEB3B" stroke="#333333" stroke-width="1" />
  <path d="M50,35 L60,45 L55,50 L45,40 L50,35 Z" fill="#FF5252" stroke="#333333" stroke-width="1" />
  
  <!-- Alphabet letters -->
  <text x="30" y="60" font-family="Arial" font-size="10" font-weight="bold" fill="#333333">A</text>
  <text x="40" y="55" font-family="Arial" font-size="10" font-weight="bold" fill="#333333">B</text>
  <text x="60" y="55" font-family="Arial" font-size="10" font-weight="bold" fill="#333333">C</text>
  <text x="70" y="60" font-family="Arial" font-size="10" font-weight="bold" fill="#333333">D</text>
</svg> 