<svg width="100" height="100" viewBox="0 0 100 100" xmlns="http://www.w3.org/2000/svg">
  <!-- Background circle -->
  <circle cx="50" cy="50" r="45" fill="#8BC34A" />
  
  <!-- Trophy -->
  <path d="M40,30 L60,30 L60,55 L50,65 L40,55 Z" fill="#FFD700" stroke="#333333" stroke-width="2" />
  <path d="M40,30 L35,30 C30,30 25,35 25,40 C25,50 35,50 40,45 L40,30 Z" fill="#FFD700" stroke="#333333" stroke-width="2" />
  <path d="M60,30 L65,30 C70,30 75,35 75,40 C75,50 65,50 60,45 L60,30 Z" fill="#FFD700" stroke="#333333" stroke-width="2" />
  <rect x="45" y="65" width="10" height="10" fill="#CD853F" stroke="#333333" stroke-width="1" />
  <rect x="40" y="75" width="20" height="5" rx="2" fill="#CD853F" stroke="#333333" stroke-width="1" />
  
  <!-- Star on trophy -->
  <path d="M50,40 L53,46 L60,47 L55,52 L56,59 L50,56 L44,59 L45,52 L40,47 L47,46 Z" fill="#FFFFFF" stroke="#333333" stroke-width="1" />
  
  <!-- People figures (teamwork) -->
  <circle cx="30" cy="25" r="5" fill="#FFFFFF" stroke="#333333" stroke-width="1" />
  <path d="M30,30 L30,40 L25,50" fill="none" stroke="#FFFFFF" stroke-width="2" />
  <path d="M30,30 L30,40 L35,50" fill="none" stroke="#FFFFFF" stroke-width="2" />
  <path d="M30,35 L25,35" fill="none" stroke="#FFFFFF" stroke-width="2" />
  
  <circle cx="70" cy="25" r="5" fill="#FFFFFF" stroke="#333333" stroke-width="1" />
  <path d="M70,30 L70,40 L65,50" fill="none" stroke="#FFFFFF" stroke-width="2" />
  <path d="M70,30 L70,40 L75,50" fill="none" stroke="#FFFFFF" stroke-width="2" />
  <path d="M70,35 L75,35" fill="none" stroke="#FFFFFF" stroke-width="2" />
</svg> 