<svg width="100" height="100" viewBox="0 0 100 100" xmlns="http://www.w3.org/2000/svg">
  <!-- Badge background -->
  <circle cx="50" cy="50" r="45" fill="#FF7043" />
  <circle cx="50" cy="50" r="40" fill="#FF5722" />
  
  <!-- Book shape -->
  <path d="M30,30 L70,30 L70,70 L30,70 Z" fill="#FFFFFF" stroke="#333333" stroke-width="2" />
  <path d="M30,30 L30,70 L35,65 L40,70 L45,65 L50,70 L55,65 L60,70 L65,65 L70,70 L70,30 Z" fill="#FFFFFF" stroke="#333333" stroke-width="2" />
  <path d="M50,30 L50,70" stroke="#333333" stroke-width="1" />
  
  <!-- Text on pages -->
  <path d="M35,40 L45,40" stroke="#666666" stroke-width="1" />
  <path d="M35,45 L45,45" stroke="#666666" stroke-width="1" />
  <path d="M35,50 L45,50" stroke="#666666" stroke-width="1" />
  <path d="M35,55 L45,55" stroke="#666666" stroke-width="1" />
  
  <path d="M55,40 L65,40" stroke="#666666" stroke-width="1" />
  <path d="M55,45 L65,45" stroke="#666666" stroke-width="1" />
  <path d="M55,50 L65,50" stroke="#666666" stroke-width="1" />
  <path d="M55,55 L65,55" stroke="#666666" stroke-width="1" />
  
  <!-- Alphabet letters -->
  <text x="37" y="38" font-family="Arial" font-size="6" fill="#333333">A</text>
  <text x="57" y="38" font-family="Arial" font-size="6" fill="#333333">B</text>
  <text x="37" y="48" font-family="Arial" font-size="6" fill="#333333">C</text>
  <text x="57" y="48" font-family="Arial" font-size="6" fill="#333333">D</text>
  
  <!-- Badge text -->
  <path id="curve" d="M15,75 Q50,95 85,75" fill="none" />
  <text font-family="Arial" font-size="10" font-weight="bold" fill="#FFFFFF">
    <textPath href="#curve" text-anchor="middle" startOffset="50%">ENGLISH EXPERT</textPath>
  </text>
</svg> 