<svg width="100" height="100" viewBox="0 0 100 100" xmlns="http://www.w3.org/2000/svg">
  <!-- Badge background -->
  <circle cx="50" cy="50" r="45" fill="#8BC34A" />
  <circle cx="50" cy="50" r="40" fill="#7CB342" />
  
  <!-- Trophy -->
  <path d="M40,30 L60,30 L60,50 L50,60 L40,50 Z" fill="#FFD700" stroke="#FFFFFF" stroke-width="2" />
  <rect x="45" y="60" width="10" height="5" fill="#CD853F" stroke="#FFFFFF" stroke-width="1" />
  <rect x="40" y="65" width="20" height="5" rx="2" fill="#CD853F" stroke="#FFFFFF" stroke-width="1" />
  
  <!-- Crown on top of trophy -->
  <path d="M40,30 L45,20 L50,25 L55,20 L60,30" fill="#FFD700" stroke="#FFFFFF" stroke-width="1" />
  
  <!-- People figures (teamwork) -->
  <circle cx="30" cy="40" r="5" fill="#FFFFFF" stroke="#333333" stroke-width="1" />
  <path d="M30,45 L30,55" fill="none" stroke="#FFFFFF" stroke-width="2" />
  <path d="M30,55 L25,65" fill="none" stroke="#FFFFFF" stroke-width="2" />
  <path d="M30,55 L35,65" fill="none" stroke="#FFFFFF" stroke-width="2" />
  <path d="M20,50 L40,50" fill="none" stroke="#FFFFFF" stroke-width="2" />
  
  <circle cx="70" cy="40" r="5" fill="#FFFFFF" stroke="#333333" stroke-width="1" />
  <path d="M70,45 L70,55" fill="none" stroke="#FFFFFF" stroke-width="2" />
  <path d="M70,55 L65,65" fill="none" stroke="#FFFFFF" stroke-width="2" />
  <path d="M70,55 L75,65" fill="none" stroke="#FFFFFF" stroke-width="2" />
  <path d="M60,50 L80,50" fill="none" stroke="#FFFFFF" stroke-width="2" />
  
  <!-- Badge text -->
  <path id="curve" d="M15,75 Q50,95 85,75" fill="none" />
  <text font-family="Arial" font-size="9" font-weight="bold" fill="#FFFFFF">
    <textPath href="#curve" text-anchor="middle" startOffset="50%">LEADERSHIP CHAMPION</textPath>
  </text>
</svg> 